<svg xmlns="http://www.w3.org/2000/svg" version="1.1" xmlns:xlink="http://www.w3.org/1999/xlink" xmlns:svgjs="http://svgjs.dev/svgjs" width="1000" height="1000"><g clip-path="url(#SvgjsClipPath1665)"><rect width="1000" height="1000" fill="#f4f4f4"></rect><g transform="matrix(1.0248901903367496,0,0,1.0248901903367496,150,150)"><svg xmlns="http://www.w3.org/2000/svg" version="1.1" xmlns:xlink="http://www.w3.org/1999/xlink" xmlns:svgjs="http://svgjs.dev/svgjs" width="683" height="683"><svg width="683" height="683" viewBox="0 0 683 683" fill="none" xmlns="http://www.w3.org/2000/svg">
<g clip-path="url(#clip0_26_2)">
<path d="M75.3336 2.53345C68.8003 5.46678 62.9336 11.2001 60.5336 16.9334C53.6003 33.3334 67.6003 82.4001 93.4669 131.867C98.5336 141.6 102.667 149.867 102.4 150C102.134 150.133 87.8669 144.4 70.6669 137.2C35.2003 122.4 31.8669 121.733 20.1336 127.467C10.1336 132.533 6.13358 138.933 5.60025 151.2C5.20025 160.133 5.46692 161.2 10.1336 168.933C27.3336 197.6 59.7336 231.2 98.4003 260.4C106.667 266.533 110.534 270.4 110 271.6C109.6 272.667 109.334 274.133 109.334 274.8C109.334 275.467 91.8669 276 67.2003 276C19.6003 276 16.9336 276.4 8.66692 284.667C-2.93308 296.267 -2.53308 314.133 9.60025 325.467C22.6669 337.6 64.9336 359.067 94.4003 368.667C100 370.4 101.467 371.6 102.134 374.4C102.534 376.4 104.667 383.867 106.8 391.067C117.6 426.267 142.8 459.733 176 483.067L178.934 485.2L171.467 509.6C167.334 523.067 164 535.2 164 536.4C164 540 170 545.333 174 545.333C180.267 545.333 183.067 540.533 189.867 518C193.467 506.267 196.4 496.533 196.534 496.4C196.667 496.133 202.267 498.667 209.067 502C233.6 514 265.067 522.933 298.667 527.467C320 530.4 362.667 530.4 384.134 527.6C416.267 523.333 449.6 513.867 473.867 501.867C480.534 498.667 486 496.267 486.134 496.4C486.267 496.533 494 521.6 503.467 552C519.067 602.8 520.534 608.267 520.534 618C520.667 626.8 520 630 517.2 636.133C512.667 645.733 504.4 654 494.8 658.533L487.334 662H341.334H195.334L187.867 658.533C183.6 656.533 177.734 652.4 174.667 649.333C160.667 635.333 158.4 618.8 167.067 591.867C172.8 573.867 173.067 570.8 168.934 566.933C165.2 563.333 160 563.2 156.134 566.267C152.534 569.333 142.934 600.133 141.734 612.267C138.8 644.267 161.467 674.533 193.067 681.2C202.934 683.2 479.734 683.2 489.6 681.2C520.934 674.667 543.867 644.133 540.934 612.533C540.4 607.2 533.2 581.6 521.867 544.533C506.4 494 504 484.8 505.6 483.867C506.8 483.2 512.4 478.933 518.267 474.133C545.6 452.133 566.4 422.133 575.867 391.067C578 383.867 580.134 376.4 580.534 374.4C581.2 371.6 582.667 370.4 588.267 368.667C625.467 356.533 670.934 331.6 678.134 319.333C685.067 307.333 683.6 294.133 674.134 284.667C665.734 276.4 663.2 276 615.467 276C590.8 276 573.334 275.467 573.334 274.8C573.334 274.133 573.067 272.667 572.667 271.733C572.134 270.4 577.067 265.867 586.934 258.267C608.934 241.6 614.667 235.867 614.667 231.067C614.667 228.667 613.467 226 611.6 224.267C606.134 219.067 602.134 220.4 588.134 231.733C581.067 237.467 572.8 244 569.734 246.4L564.134 250.8L559.867 242.4C554.4 231.333 545.6 217.733 535.6 204.933C531.2 199.333 527.867 194.267 528.267 194C529.734 192.4 648.134 144 650.4 144C653.867 144 657.334 148.133 657.334 152.533C657.334 157.067 647.334 172 634 187.6C622.534 200.933 621.2 205.6 627.467 210.533C633.334 215.2 636.934 214.133 644.934 205.6C653.467 196.533 665.334 180.533 672.4 169.067C677.334 161.067 677.467 160.133 677.067 151.2C676.534 138.933 672.534 132.533 662.534 127.467C650.934 121.733 647.467 122.4 612 137.2C594.8 144.4 580.534 150.133 580.267 150C580 149.867 584.134 141.6 589.2 131.867C610.934 90.4001 625.067 46.9334 623.734 25.8668C623.334 19.6001 622.4 16.4001 619.467 12.1334C615.067 5.86678 604.534 0.000113934 597.467 0.000113934C584.667 0.000113934 586.267 -1.46655 515.867 68.9334L449.6 134.933L436.534 129.6C418.667 122.4 404.534 118 386.534 114.4C373.334 111.733 367.334 111.333 341.334 111.333C315.334 111.333 309.334 111.733 296.134 114.4C278.134 118 264 122.4 246.134 129.6L233.067 134.933L166.8 68.9334C110.534 12.6668 99.8669 2.66678 95.3336 1.46678C87.6003 -0.666553 81.4669 -0.266553 75.3336 2.53345ZM152.534 82.5334L214.934 144.933L204.534 152C193.334 159.467 183.6 167.067 175.867 174.267L171.2 178.8L153.067 171.333L135.067 163.867L124.934 146.933C104.534 112.4 89.8669 79.4668 82.5336 50.9334C78.1336 33.7334 77.6003 26.0001 80.9336 22.4001C86.2669 16.4001 86.6669 16.6668 152.534 82.5334ZM601.6 22.2668C605.067 25.3334 604.667 33.2001 600 51.2001C592.8 79.0668 577.867 112.8 557.734 146.933L547.734 163.733L529.6 171.333L511.6 178.8L506.8 174.267C499.467 167.467 487.734 158.267 477.2 151.2L467.734 144.933L530.267 82.5334C595.467 17.2001 595.734 16.9334 601.6 22.2668ZM384.667 134.533C490.134 157.2 567.334 247.2 563.6 343.333C562.534 369.6 558 387.467 546.667 408.933C530.667 439.6 504.934 464.133 470.134 481.867C401.6 516.8 301.2 519.6 227.2 488.667C149.6 456.133 108.934 388.8 120.667 312C134.534 220.133 214 146.533 315.334 131.467C317.6 131.2 331.067 131.067 345.334 131.333C365.867 131.6 374.134 132.267 384.667 134.533ZM94.4003 168.667C127.067 182.267 154 193.6 154.4 194C154.8 194.267 151.467 199.333 147.067 204.933C137.2 217.733 128.267 231.333 122.8 242.4L118.534 250.8L110.267 244.4C75.3336 217.467 48.4003 190.4 30.9336 164.4C27.7336 159.733 25.3336 154.533 25.3336 152.533C25.3336 148.133 28.8003 144 32.4003 144C33.7336 144 61.6003 155.067 94.4003 168.667ZM102.134 300.267C100.134 311.333 98.8003 325.733 98.6669 336.933V349.067L85.0669 343.867C69.4669 337.733 46.2669 326.4 34.9336 319.2C20.1336 309.867 16.9336 304.4 22.6669 298.667C25.2003 296.133 27.0669 296 64.1336 296H102.934L102.134 300.267ZM660 298.667C666.4 305.067 662 310.8 640.8 323.333C627.067 331.333 616.534 336.4 597.067 344L584 349.067V336.933C583.867 325.733 582.534 311.333 580.534 300.267L579.734 296H618.534C655.6 296 657.467 296.133 660 298.667Z" fill="url(#paint0_linear_26_2)"></path>
<path d="M217.334 288C215.067 290.267 214.667 292.4 214.667 303.067C214.667 314.4 214.934 315.867 217.734 318.4C221.6 322 226.667 322.133 230.8 318.8C233.734 316.4 234 315.333 234 303.333C234 291.333 233.734 290.267 230.8 287.867C226.8 284.533 220.667 284.667 217.334 288Z" fill="url(#paint1_linear_26_2)"></path>
<path d="M451.867 287.867C448.934 290.267 448.667 291.333 448.667 303.333C448.667 315.333 448.934 316.4 451.867 318.8C456.134 322.267 461.6 322 465.067 318.267C467.6 315.6 468 313.6 468 302.933C468 292.4 467.6 290.267 465.334 288C462 284.667 455.867 284.533 451.867 287.867Z" fill="url(#paint2_linear_26_2)"></path>
<path d="M312.134 328.8C306.534 335.867 310.134 343.067 322.934 350C329.2 353.6 331.334 354 341.334 354C351.334 354 353.467 353.6 359.734 350C372.534 343.067 376.134 335.867 370.534 328.8C366.667 323.867 361.2 324.267 354.4 329.6C349.734 333.467 348 334 341.334 334C334.667 334 332.934 333.467 328.267 329.6C321.467 324.267 316 323.867 312.134 328.8Z" fill="url(#paint3_linear_26_2)"></path>
</g>
<defs>
<linearGradient id="paint0_linear_26_2" x1="597" y1="-4.49996" x2="198" y2="695.5" gradientUnits="userSpaceOnUse">
<stop stop-color="#28CFBA"></stop>
<stop offset="1" stop-color="#B92DD4"></stop>
</linearGradient>
<linearGradient id="paint1_linear_26_2" x1="231.579" y1="285.197" x2="207.315" y2="308.219" gradientUnits="userSpaceOnUse">
<stop stop-color="#28CFBA"></stop>
<stop offset="1" stop-color="#B92DD4"></stop>
</linearGradient>
<linearGradient id="paint2_linear_26_2" x1="465.579" y1="285.196" x2="441.291" y2="308.218" gradientUnits="userSpaceOnUse">
<stop stop-color="#28CFBA"></stop>
<stop offset="1" stop-color="#B92DD4"></stop>
</linearGradient>
<linearGradient id="paint3_linear_26_2" x1="365.135" y1="325.148" x2="355.746" y2="361.672" gradientUnits="userSpaceOnUse">
<stop stop-color="#28CFBA"></stop>
<stop offset="1" stop-color="#B92DD4"></stop>
</linearGradient>
<clipPath id="clip0_26_2">
<rect width="682.667" height="682.667" fill="white"></rect>
</clipPath>
<clipPath id="SvgjsClipPath1665"><rect width="1000" height="1000" x="0" y="0" rx="350" ry="350"></rect></clipPath></defs>
</svg></svg></g></g></svg>