<?xml version="1.0" standalone="no"?>
<!DOCTYPE svg PUBLIC "-//W3C//DTD SVG 20010904//EN" "http://www.w3.org/TR/2001/REC-SVG-20010904/DTD/svg10.dtd">
<svg version="1.0" xmlns="http://www.w3.org/2000/svg" width="512.000000pt" height="512.000000pt"
    viewBox="0 0 512.000000 512.000000" preserveAspectRatio="xMidYMid meet">

    <g transform="translate(0.000000,512.000000) scale(0.100000,-0.100000)" fill="currentColor" stroke="none">
        <path d="M565 5101 c-49 -22 -93 -65 -111 -108 -52 -123 53 -491 247 -862 38
-73 69 -135 67 -136 -2 -1 -109 42 -238 96 -266 111 -291 116 -379 73 -75 -38
-105 -86 -109 -178 -3 -67 -1 -75 34 -133 129 -215 372 -467 662 -686 62 -46
91 -75 87 -84 -3 -8 -5 -19 -5 -24 0 -5 -131 -9 -316 -9 -357 0 -377 -3 -439
-65 -87 -87 -84 -221 7 -306 98 -91 415 -252 636 -324 42 -13 53 -22 58 -43 3
-15 19 -71 35 -125 81 -264 270 -515 519 -690 l22 -16 -56 -183 c-31 -101 -56
-192 -56 -201 0 -27 45 -67 75 -67 47 0 68 36 119 205 27 88 49 161 50 162 1
2 43 -17 94 -42 184 -90 420 -157 672 -191 160 -22 480 -22 641 -1 241 32 491
103 673 193 50 24 91 42 92 41 1 -1 59 -189 130 -417 117 -381 128 -422 128
-495 1 -66 -4 -90 -25 -136 -34 -72 -96 -134 -168 -168 l-56 -26 -1095 0
-1095 0 -56 26 c-32 15 -76 46 -99 69 -105 105 -122 229 -57 431 43 135 45
158 14 187 -28 27 -67 28 -96 5 -27 -23 -99 -254 -108 -345 -22 -240 148 -467
385 -517 74 -15 2150 -15 2224 0 235 49 407 278 385 515 -4 40 -58 232 -143
510 -116 379 -134 448 -122 455 9 5 51 37 95 73 205 165 361 390 432 623 16
54 32 110 35 125 5 21 16 30 58 43 279 91 620 278 674 370 52 90 41 189 -30
260 -63 62 -82 65 -440 65 -185 0 -316 4 -316 9 0 5 -2 16 -5 23 -4 10 33 44
107 101 165 125 208 168 208 204 0 18 -9 38 -23 51 -41 39 -71 29 -176 -56
-53 -43 -115 -92 -138 -110 l-42 -33 -32 63 c-41 83 -107 185 -182 281 -33 42
-58 80 -55 82 11 12 899 375 916 375 26 0 52 -31 52 -64 0 -34 -75 -146 -175
-263 -86 -100 -96 -135 -49 -172 44 -35 71 -27 131 37 64 68 153 188 206 274
37 60 38 67 35 134 -4 92 -34 140 -109 178 -87 43 -113 38 -379 -73 -129 -54
-236 -97 -238 -96 -2 1 29 63 67 136 163 311 269 637 259 795 -3 47 -10 71
-32 103 -33 47 -112 91 -165 91 -96 0 -84 11 -612 -517 l-497 -495 -98 40
c-134 54 -240 87 -375 114 -99 20 -144 23 -339 23 -195 0 -240 -3 -339 -23
-135 -27 -241 -60 -375 -114 l-98 -40 -497 495 c-422 422 -502 497 -536 506
-58 16 -104 13 -150 -8z m579 -600 l468 -468 -78 -53 c-84 -56 -157 -113 -215
-167 l-35 -34 -136 56 -135 56 -76 127 c-153 259 -263 506 -318 720 -33 129
-37 187 -12 214 40 45 43 43 537 -451z m3368 452 c26 -23 23 -82 -12 -217 -54
-209 -166 -462 -317 -718 l-75 -126 -136 -57 -135 -56 -36 34 c-55 51 -143
120 -222 173 l-71 47 469 468 c489 490 491 492 535 452z m-1627 -842 c791
-170 1370 -845 1342 -1566 -8 -197 -42 -331 -127 -492 -120 -230 -313 -414
-574 -547 -514 -262 -1267 -283 -1822 -51 -582 244 -887 749 -799 1325 104
689 700 1241 1460 1354 17 2 118 3 225 1 154 -2 216 -7 295 -24z m-2177 -256
c245 -102 447 -187 450 -190 3 -2 -22 -40 -55 -82 -74 -96 -141 -198 -182
-281 l-32 -63 -62 48 c-262 202 -464 405 -595 600 -24 35 -42 74 -42 89 0 33
26 64 53 64 10 0 219 -83 465 -185z m58 -987 c-15 -83 -25 -191 -26 -275 l0
-91 -102 39 c-117 46 -291 131 -376 185 -111 70 -135 111 -92 154 19 19 33 20
311 20 l291 0 -6 -32z m4184 12 c48 -48 15 -91 -144 -185 -103 -60 -182 -98
-328 -155 l-98 -38 0 91 c-1 84 -11 192 -26 275 l-6 32 291 0 c278 0 292 -1
311 -20z" />
        <path d="M1630 2960 c-17 -17 -20 -33 -20 -113 0 -85 2 -96 23 -115 29 -27 67
-28 98 -3 22 18 24 26 24 116 0 90 -2 98 -24 116 -30 25 -76 24 -101 -1z" />
        <path d="M3389 2961 c-22 -18 -24 -26 -24 -116 0 -90 2 -98 24 -116 32 -26 73
-24 99 4 19 20 22 35 22 115 0 79 -3 95 -20 112 -25 25 -71 26 -101 1z" />
        <path d="M2341 2654 c-42 -53 -15 -107 81 -159 47 -27 63 -30 138 -30 75 0 91
3 138 30 96 52 123 106 81 159 -29 37 -70 34 -121 -6 -35 -29 -48 -33 -98 -33
-50 0 -63 4 -98 33 -51 40 -92 43 -121 6z" />
    </g>
</svg>